<svg width="284" height="84" viewBox="0 0 284 84" fill="none" xmlns="http://www.w3.org/2000/svg">
<g opacity="0.2">
<circle cx="2" cy="2" r="2" fill="white"/>
<circle cx="22" cy="2" r="2" fill="#BA3EFF"/>
<circle cx="42" cy="2" r="2" fill="white"/>
<circle cx="62" cy="2" r="2" fill="#BA3EFF"/>
<circle cx="82" cy="2" r="2" fill="#BA3EFF"/>
<circle cx="102" cy="2" r="2" fill="#BA3EFF"/>
<circle cx="122" cy="2" r="2" fill="white"/>
<circle cx="142" cy="2" r="2" fill="white"/>
<circle cx="162" cy="2" r="2" fill="#BA3EFF"/>
<circle cx="182" cy="2" r="2" fill="#BA3EFF"/>
<circle cx="202" cy="2" r="2" fill="#BA3EFF"/>
<circle cx="222" cy="2" r="2" fill="#BA3EFF"/>
<circle cx="242" cy="2" r="2" fill="#BA3EFF"/>
<circle cx="262" cy="2" r="2" fill="white"/>
<circle cx="282" cy="2" r="2" fill="#BA3EFF"/>
<circle cx="2" cy="22" r="2" fill="#BA3EFF"/>
<circle cx="22" cy="22" r="2" fill="#BA3EFF"/>
<circle cx="42" cy="22" r="2" fill="#BA3EFF"/>
<circle cx="62" cy="22" r="2" fill="white"/>
<circle cx="82" cy="22" r="2" fill="white"/>
<circle cx="102" cy="22" r="2" fill="#BA3EFF"/>
<circle cx="122" cy="22" r="2" fill="white"/>
<circle cx="142" cy="22" r="2" fill="#BA3EFF"/>
<circle cx="162" cy="22" r="2" fill="#BA3EFF"/>
<circle cx="182" cy="22" r="2" fill="white"/>
<circle cx="202" cy="22" r="2" fill="#BA3EFF"/>
<circle cx="222" cy="22" r="2" fill="#BA3EFF"/>
<circle cx="242" cy="22" r="2" fill="#BA3EFF"/>
<circle cx="262" cy="22" r="2" fill="white"/>
<circle cx="282" cy="22" r="2" fill="#BA3EFF"/>
<circle r="2" transform="matrix(-1 0 0 1 282 42)" fill="white"/>
<circle r="2" transform="matrix(-1 0 0 1 262 42)" fill="#BA3EFF"/>
<circle r="2" transform="matrix(-1 0 0 1 242 42)" fill="white"/>
<circle r="2" transform="matrix(-1 0 0 1 222 42)" fill="#BA3EFF"/>
<circle r="2" transform="matrix(-1 0 0 1 202 42)" fill="#BA3EFF"/>
<circle r="2" transform="matrix(-1 0 0 1 182 42)" fill="#BA3EFF"/>
<circle r="2" transform="matrix(-1 0 0 1 162 42)" fill="white"/>
<circle r="2" transform="matrix(-1 0 0 1 142 42)" fill="white"/>
<circle r="2" transform="matrix(-1 0 0 1 122 42)" fill="#BA3EFF"/>
<circle r="2" transform="matrix(-1 0 0 1 102 42)" fill="#BA3EFF"/>
<circle r="2" transform="matrix(-1 0 0 1 82 42)" fill="#BA3EFF"/>
<circle r="2" transform="matrix(-1 0 0 1 62 42)" fill="#BA3EFF"/>
<circle r="2" transform="matrix(-1 0 0 1 42 42)" fill="#BA3EFF"/>
<circle r="2" transform="matrix(-1 0 0 1 22 42)" fill="#BA3EFF"/>
<circle r="2" transform="matrix(-1 0 0 1 2 42)" fill="white"/>
<circle r="2" transform="matrix(-1 0 0 1 282 62)" fill="#BA3EFF"/>
<circle r="2" transform="matrix(-1 0 0 1 262 62)" fill="#BA3EFF"/>
<circle r="2" transform="matrix(-1 0 0 1 242 62)" fill="#BA3EFF"/>
<circle r="2" transform="matrix(-1 0 0 1 222 62)" fill="white"/>
<circle r="2" transform="matrix(-1 0 0 1 202 62)" fill="white"/>
<circle r="2" transform="matrix(-1 0 0 1 182 62)" fill="#BA3EFF"/>
<circle r="2" transform="matrix(-1 0 0 1 162 62)" fill="white"/>
<circle r="2" transform="matrix(-1 0 0 1 142 62)" fill="#BA3EFF"/>
<circle r="2" transform="matrix(-1 0 0 1 122 62)" fill="#BA3EFF"/>
<circle r="2" transform="matrix(-1 0 0 1 102 62)" fill="white"/>
<circle r="2" transform="matrix(-1 0 0 1 82 62)" fill="#BA3EFF"/>
<circle r="2" transform="matrix(-1 0 0 1 62 62)" fill="#BA3EFF"/>
<circle r="2" transform="matrix(-1 0 0 1 42 62)" fill="#BA3EFF"/>
<circle r="2" transform="matrix(-1 0 0 1 22 62)" fill="white"/>
<circle r="2" transform="matrix(-1 0 0 1 2 62)" fill="#BA3EFF"/>
<circle cx="2" cy="82" r="2" fill="#BA3EFF"/>
<circle cx="22" cy="82" r="2" fill="#BA3EFF"/>
<circle cx="42" cy="82" r="2" fill="#BA3EFF"/>
<circle cx="62" cy="82" r="2" fill="white"/>
<circle cx="82" cy="82" r="2" fill="white"/>
<circle cx="102" cy="82" r="2" fill="#BA3EFF"/>
<circle cx="122" cy="82" r="2" fill="white"/>
<circle cx="142" cy="82" r="2" fill="#BA3EFF"/>
<circle cx="162" cy="82" r="2" fill="#BA3EFF"/>
<circle cx="182" cy="82" r="2" fill="white"/>
<circle cx="202" cy="82" r="2" fill="#BA3EFF"/>
<circle cx="222" cy="82" r="2" fill="#BA3EFF"/>
<circle cx="242" cy="82" r="2" fill="#BA3EFF"/>
<circle cx="262" cy="82" r="2" fill="white"/>
<circle cx="282" cy="82" r="2" fill="#BA3EFF"/>
</g>
</svg>
