<svg width="44" height="44" viewBox="0 0 44 44" fill="none" xmlns="http://www.w3.org/2000/svg">
<circle cx="21.8564" cy="21.8564" r="15.5" transform="rotate(-30 21.8564 21.8564)" stroke="url(#paint0_linear_53_15)"/>
<path d="M14.8984 28H13.5703V16.5781H19.9375V17.7578H14.8984V21.9375H19.6328V23.1172H14.8984V28ZM21.8359 16.5781H25.0625C26.5781 16.5781 27.6745 16.8047 28.3516 17.2578C29.0286 17.7109 29.3672 18.4271 29.3672 19.4062C29.3672 20.0833 29.1771 20.6432 28.7969 21.0859C28.4219 21.5234 27.8724 21.8073 27.1484 21.9375V22.0156C28.8828 22.3125 29.75 23.224 29.75 24.75C29.75 25.7708 29.4036 26.5677 28.7109 27.1406C28.0234 27.7135 27.0599 28 25.8203 28H21.8359V16.5781ZM23.1641 21.4688H25.3516C26.2891 21.4688 26.9635 21.3229 27.375 21.0312C27.7865 20.7344 27.9922 20.237 27.9922 19.5391C27.9922 18.8984 27.763 18.4375 27.3047 18.1562C26.8464 17.8698 26.1172 17.7266 25.1172 17.7266H23.1641V21.4688ZM23.1641 22.5938V26.8672H25.5469C26.4688 26.8672 27.1615 26.6901 27.625 26.3359C28.0938 25.9766 28.3281 25.4167 28.3281 24.6562C28.3281 23.9479 28.0885 23.4271 27.6094 23.0938C27.1354 22.7604 26.4115 22.5938 25.4375 22.5938H23.1641Z" fill="url(#paint1_linear_53_15)"/>
<defs>
<linearGradient id="paint0_linear_53_15" x1="37.8564" y1="-2.34041" x2="6.78756" y2="-2.34041" gradientUnits="userSpaceOnUse">
<stop offset="0.0943286" stop-color="#2C5AF4" stop-opacity="0"/>
<stop offset="0.318287" stop-color="#A400FF"/>
<stop offset="0.90162" stop-color="#2C5AF4" stop-opacity="0"/>
</linearGradient>
<linearGradient id="paint1_linear_53_15" x1="31" y1="5.36469" x2="12.5529" y2="5.36469" gradientUnits="userSpaceOnUse">
<stop stop-color="#A400FF"/>
<stop offset="1" stop-color="#2C5AF4"/>
</linearGradient>
</defs>
</svg>
